<?xml version="1.0" encoding="utf-8"?>
<!-- Generator: Adobe Illustrator 16.0.0, SVG Export Plug-In . SVG Version: 6.00 Build 0)  -->
<!DOCTYPE svg PUBLIC "-//W3C//DTD SVG 1.1//EN" "http://www.w3.org/Graphics/SVG/1.1/DTD/svg11.dtd">
<svg version="1.1" id="Layer_1" xmlns="http://www.w3.org/2000/svg" xmlns:xlink="http://www.w3.org/1999/xlink" x="0px" y="0px"
	 width="864px" height="864px" viewBox="0 0 864 864" enable-background="new 0 0 864 864" xml:space="preserve">
<g>
	<path fill="#020202" d="M762.001,453.623c-6.735-10.06-19.014-12.434-29.863-15.459c-9.825-2.484-18.67-7.746-26.449-14.126
		c3.338-4.547,6.551-9.173,9.671-13.875c10.803,4.455,22.631,4.624,33.991,2.592c8.32,2.08,17.292,3.911,25.705,1.087
		c7.852-2.671,13.797-8.972,17.756-16.081c3.896-4.299,8.925-7.776,11.347-13.256c3.058-5.169,1.213-11.486,3.709-16.825
		c3.464-9.251,1.337-20.411-5.476-27.613c-9.826-10.166-24.077-15.832-38.231-14.559c-10.555-9.205-27.256-9.78-38.26-1.01
		c5.293-6.783,7.93-15.024,11.129-22.862c5.433-8.211,13.101-14.87,21.745-19.559c-10.879-10.803-22.085-21.544-35.154-29.692
		c-9.499-5.789-19.511-10.711-29.756-15.01c-2.731-6.984-6.285-14.001-12.324-18.703c-5.526-4.114-11.89-6.86-18.113-9.701
		c-4.732-10.942-14.932-18.58-26.17-21.948c-16.438-5.339-33.54-9.498-48.551-18.393c-14-7.669-27.286-16.547-40.666-25.223
		c-2.251,6.984-2.763,14.342-3.265,21.604c-14.698,1.584-29.352,5.604-42.032,13.364c5.588,2.251,10.819,5.323,15.63,8.94
		c-14.979-0.651-30.065,2.515-43.646,8.801c-10.833,5.076-19.604,13.457-27.583,22.181c-4.344,4.857-8.209,10.693-14.465,13.302
		c-10.647,4.61-22.227,6.519-33.713,7.699c1.304,7.48,4.765,14.295,8.506,20.814c-6.007,10.011-9.282,21.513-9.547,33.169
		c-13.332,12.837-26.572,28.374-27.084,47.885c-2.888-0.854-5.759-1.769-8.615-2.716c0,12.619,3.321,25.036,8.739,36.366
		c-8.678,8.926-14.746,19.838-20.769,30.625c-1.646,3.307-4.176,6.038-7.078,8.289c-5.836,4.641-11.253,9.825-17.353,14.124
		c-6.97,3.166-14.575,4.626-21.716,7.311c-15.769,5.263-26.525,18.657-38.322,29.585c-11.16-2.5-22.413-7.357-29.724-16.499
		c-7.56-8.987-9.624-20.847-12.743-31.805c-7.481-26.014-26.248-48.724-51.066-59.867c-2.701-8.149-7.032-15.94-13.722-21.467
		c-8.956-7.854-21.373-11.066-33.107-9.562c-28.203,3.012-53.55,18.549-73.045,38.557c12.728,1.334,25.673,3.321,37.346,8.801
		c9.173,3.881,13.146,13.799,20.457,19.976c9.639,10.136,24.214,14.808,37.966,12.014c5.681,4.067,10.632,9.251,13.644,15.616
		c7.062,14.341,7.823,30.7,13.333,45.587c4.904,13.814,13.705,26.062,24.275,36.118c11.937,10.322,26.698,16.732,41.614,21.451
		c-0.544,10.788-1.801,21.529-2.359,32.315c-0.667,9.065-1.103,18.596-5.635,26.729c-5.106,10.243-17.12,14.915-21.342,25.812
		c-4.703,9.795-1.351,20.846,3.833,29.692c-0.03,15.491-0.542,31.059-1.676,46.534c-0.497,12.774,6.876,25.238,17.865,31.571
		c7.963,4.517,17.664,4.794,26.31,2.296c5.277-1.676,10.959,0.062,16.251-1.676c6.239-1.475,11.331-5.929,14.823-11.176
		c2.748-4.361,7.513-7.03,9.949-11.625c3.772-6.533,4.191-14.371,3.431-21.698c-1.397-9.78-8.661-17.694-17.275-21.979
		c-2.763-1.086-1.521-4.626-2.111-6.877c10.492-7.309,21.808-13.347,33.264-18.98c7.062-3.136,13.813-6.984,20.054-11.563
		c4.19,10.089,13.565,17.74,24.602,18.718c15.227,1.211,30.469-0.867,45.665-1.861c10.229,6.846,23.127,11.271,35.249,6.877
		c7.714-3.383,16.298-0.108,24.245-2.499c8.304-1.738,15.243-7.823,18.656-15.505c8.289-6.039,14.094-16.468,11.938-26.899
		c-2.176-14.031-12.853-25.332-25.812-30.424c11.313-4.656,21.621-13.115,26.277-24.678c3.244-8.057,5.106-16.594,6.706-25.099
		c22.801-2.685,42.421-15.49,62.241-26.062c5.184,5.028,8.69,11.41,11.362,18.052c11.828-0.837,23.811-1.737,35.188-5.37
		c15.972,7.791,33.511,11.687,50.973,14.481c11.548,1.908,23.857,0.729,34.707,5.789c4.237,4.548,8.117,9.592,13.535,12.867
		c8.911,5.959,19.991,6.146,30.22,7.342c11.191,6.658,26.247,5.027,35.809-3.818c9.05-1.072,16.64-7.343,19.853-15.803
		c1.864-5.866,7.297-9.562,9.344-15.319c2.424-6.1,2.562-12.976,0.854-19.278C802.621,465.124,782.443,450.114,762.001,453.623z
		 M790.594,507.639c-0.993,4.191-1.831,8.677-4.843,11.982c-3.165,3.633-8.133,4.703-12.743,4.827
		c-4.021,5.355-10.756,8.957-17.539,7.729c-6.1-0.59-10.741-6.102-17.137-4.843c-13.007,0.9-26.401-5.388-32.347-17.292
		c-11.92-4.734-24.726-6.86-37.516-7c-19.061-2.189-38.262-6.97-55.055-16.454c-9.283,3.786-18.971,6.737-29.011,7.497
		c-3.617-8.645-10.121-15.785-18.005-20.768c-12.263,6.72-24.525,13.395-36.942,19.79c-11.208,5.711-23.841,7.512-36.195,8.801
		c1.055,9.375-1.848,18.563-4.858,27.318c-1.677,4.252-3.166,8.754-6.163,12.278c-3.478,3.522-7.746,6.1-11.997,8.521
		c-10.121,5.713-22.104,7.017-32.04,13.086c-5.09,3.166-9.715,6.968-14.23,10.88c5.51,1.008,11.502,3.741,16.947,1.04
		c4.828-1.956,9.546-4.625,14.87-4.905c14.232-1.782,27.458,9.904,30.64,23.221c1.738,7.839-3.833,14.575-10.291,18.098
		c-1.783,4.224-3.724,8.91-8.071,11.114c-7.077,3.694-15.272,1.708-22.832,1.614c-5.883,2.313-12.215,5.323-18.656,3.431
		c-6.799-1.212-12.076-6.365-18.673-7.886c-14.497,0.311-28.948,2.328-43.461,2.297c-6.565-0.186-12.961-3.538-16.53-9.11
		c-4.905-6.63-2.345-15.646,1.288-22.242c3.368-6.38,9.577-10.944,12.448-17.541c-1.661-3.555-5.961-4.453-9.018-6.489
		c-8.397,14.669-13.566,32.814-28.763,42.157c-17.026,9.981-36.196,16.624-51.143,29.957c-0.031,6.35-0.094,12.713,0.449,19.061
		c7.668,1.227,15.568,5.325,17.943,13.271c1.878,8.6,0.854,20.226-8.366,24.184c-2.002,4.656-4.78,9.717-9.965,11.331
		c-5.2,2.063-10.881-0.869-16.019,1.35c-5.82,1.895-12.324,2.499-18.114,0.187c-8.397-3.555-14.513-12.433-14.046-21.653
		c-0.141-16.095,1.116-32.16,1.442-48.24c-1.04-7.992-8.288-14.777-6.146-23.299c4.098-12.51,19.123-16.701,23.516-28.994
		c8.771-22.553,4.797-47.171,8.723-70.593c-13.317-3.414-26.464-8.133-38.198-15.413c-11.797-7.203-20.317-18.72-26.355-30.936
		c-8.444-17.602-8.583-37.949-17.539-55.334c-4.424-8.692-11.797-15.568-20.288-20.225c-10.585,3.508-22.956,1.552-31.322-6.022
		c-7.187-5.759-11.563-14.203-18.595-20.086c-8.692-5.463-19.231-6.642-29.181-8.148c19.759-13.349,42.514-26.479,67.317-23.079
		c13.768,1.676,22.801,14.761,24.648,27.705c10.726,5.122,21.155,11.238,29.615,19.666c10.819,11.191,18.036,25.533,21.685,40.59
		c3.615,14.047,9.592,28.295,20.658,38.105c10.089,7.792,22.46,12.31,35.017,14.108c7.854-8.458,16.112-16.562,24.804-24.15
		c10.602-9.081,25.316-9.531,37.438-15.43c7.109-5.82,13.907-12.029,21.079-17.772c4.562-3.431,6.597-8.955,9.592-13.627
		c6.1-11.131,13.504-21.451,21.42-31.371c-4.889-6.378-7.854-14.047-8.319-22.086c2.623,0.233,5.246,0.465,7.885,0.684
		c-2.67-7.172-3.12-15.337,0.093-22.414c5.511-12.604,14.746-23.205,24.896-32.3c-0.247-13.35,3.276-26.869,11.425-37.595
		c-3.183-4.393-5.867-9.157-7.544-14.343c10.431-1.675,21.404-2.901,30.454-8.831c6.285-3.367,9.825-9.748,14.73-14.621
		c8.379-8.614,18.144-16.454,29.755-20.101c12.246-3.849,25.207-5.029,37.98-4.236c4.455-2.903,9.111-5.495,13.83-7.964
		c-4.346-4.424-9.111-8.459-14.481-11.579c9.686-2.468,19.636-4.021,29.646-3.538c0.176-5.275,1.464-10.506,1.044-15.768
		c13.194,7.746,25.067,17.897,39.255,23.965c12.587,5.216,25.565,9.392,38.51,13.66c9.918,2.638,19.293,9.592,21.716,20.007
		c8.552,4.02,18.641,6.565,24.351,14.73c4.146,4.548,3.571,12.666,9.935,15.179c10.555,4.704,21.124,9.517,30.718,16.034
		c8.024,5.977,15.536,12.636,22.676,19.666c-5.152,4.626-11.112,8.584-15.134,14.312c-4.036,10.119-7.653,21.263-16.467,28.372
		c-2.918,2.562-7.143,3.803-8.959,7.467c8.196,0.201,16.067,2.375,23.704,5.231c5.184-3.182,9.654-8.01,15.972-8.91
		c6.813-1.584,13.486,2.079,17.896,7.094c12.992-1.211,27.674,1.396,35.947,12.495c5.14,5.711,4.225,14.435-0.202,20.287
		c0.033,4.299,1.01,9.079-1.395,12.944c-1.862,3.398-5.417,5.169-8.521,7.202c-2.888,5.913-6.427,12.324-12.914,14.822
		c-7.419,3.012-15.537,0.482-22.677-2.142c-7.248,1.241-14.651,2.701-22.011,1.584c-5.323-1.102-9.949-4.099-14.45-6.984
		c-7.947,9.358-14.202,20.007-22.181,29.35c9.143,8.057,18.921,15.816,30.531,19.946c6.535,2.592,13.363,4.284,20.163,5.977
		c6.844,1.8,11.642,7.48,14.543,13.659c8.802-1.847,18.935-2.98,26.618,2.795c7.156,5.339,14.808,12.075,16.081,21.45
		C800.389,496.681,796.57,503.683,790.594,507.639z"/>
	<g>
		<path fill="#046EB1" d="M623.489,480.212c22.305-12.649,42.375-28.824,60.146-47.249c7.064,6.286,14.358,12.481,22.664,17.09
			c10.057,5.31,20.97,8.817,31.989,11.518c7.667,1.676,8.042,12.371,15.786,14.03c7.03,1.087,14.436-3.46,21.172,0.095
			c4.812,2.732,8.786,6.891,11.642,11.609c1.18,2.422,2.811,5.511,1.164,8.116c-1.444,3.121-5.246,3.555-8.041,4.858
			c-0.326,4.206,0.481,9.158-2.638,12.542c-3.338,2.019-7.357,0.248-10.912-0.125c-1.443,3.246-2.482,7.795-6.55,8.616
			c-4.828,1.21-8.987-2.221-12.697-4.735c-8.29,0.436-17.401,1.087-24.711-3.6c-4.236-2.498-6.767-6.86-8.74-11.222
			c-10.849-4.609-22.303-7.917-34.114-8.645C660.464,491.48,641.062,488.423,623.489,480.212L623.489,480.212z"/>
		<path fill="#046EB1" d="M779.3,349.086c-7.823-4.518-17.058-0.993-25.47-2.918c-2.439-1.645-3.492-4.766-6.041-6.318
			c-9.653-3.01-14.698,10.681-24.073,8.942c-9.777-4.532-21.28-7.653-31.541-2.654c0.032-3.804,1.149-7.855-0.201-11.502
			c-3.336-4.005-1.847-9.469-1.971-14.188c-3.213,4.735-6.783,9.671-12.169,12.107c-3.415,1.707-7.964,0.979-10.354-2.096
			c-4.206-5.106-3.614-12.137-3.648-18.331c10.151-5.433,21.747-7.388,33.17-7.108c1.398,5.773,0.715,11.703-1.629,17.12
			c11.22-4.268,17.772-15.165,20.877-26.217c1.287-6.378,7.138-9.669,12.073-13.007c-7.124-6.224-14.59-12.199-22.987-16.624
			c-7.822-4.454-16.298-7.589-24.322-11.594c-7.327-4.609-6.751-15.228-13.83-20.147c-7.094-4.438-15.118-7.125-22.678-10.664
			c0.345-5.897-2.358-12.122-8.148-14.357c-15.521-6.97-32.702-9.578-47.852-17.494c-8.724-4.159-16.515-9.917-24.291-15.568
			c0.496,4.082,1.645,8.057,3.558,11.72c-8.32-2.436-16.996-2.9-25.596-3.537c5.433,2.933,10.509,6.472,15.166,10.539
			c-6.923,1.505-13.394,4.393-19.696,7.542c5.308,0.715,10.523,2.283,14.808,5.651c-17.121,3.306-34.66-2.111-51.842,1.334
			c-14.357,2.251-26.854,10.71-36.803,20.986c4.891-1.289,9.936-1.662,14.948-1.149c-11.517,4.439-22.041,10.881-32.735,16.949
			c-5.944,3.555-12.992,3.99-19.713,4.548c2.391,3.261,5.603,5.713,9.281,7.373c-6.984,6.101-11.237,14.466-14.574,22.956
			c4.189-4.222,13.271-8.893,16.888-1.629c0.354,8.041-6.77,13.287-12.543,17.586c-15.04,12.139-30.252,26.526-34.878,46.053
			c4.052-1.289,12.526-3.694,12.355,3.089c-1.318,7.915-9.732,11.517-15.801,15.412c4.548,3.975,10.462,5.355,16.329,5.915
			c-6.256,6.891-12.434,13.876-18.005,21.325c-7.87,10.587-13.566,22.569-20.924,33.451c-7.885,8.211-17.244,14.869-25.797,22.366
			c-11.89,7.947-28.203,6.861-39.006,16.841c-9.019,7.838-17.85,15.987-25.3,25.347c-15.413-1.115-31.229-5.137-43.679-14.651
			c-13.457-10.415-22.024-26.016-25.952-42.391c-3.399-15.104-9.996-30.003-21.343-40.807c-8.847-7.636-19.34-13.038-29.506-18.688
			c-1.972-7.389-3.787-15.661-10.012-20.721c-8.956-6.428-21.079-5.868-30.966-1.987c8.708,1.552,18.891,2.622,23.779,11.144
			c-4.688-2.204-9.22-4.967-14.373-5.992c-9.298-2.017-18.843,0.032-27.69,3.074c6.021,1.816,12.696,3.881,16.018,9.717
			c5.014,7.885,12.526,14.017,21.141,17.57c5.991,2.421,12.588,0.9,18.145-1.925c10.602,6.256,21.994,13.101,27.676,24.541
			c4.455,8.767,7.885,18.066,10.617,27.519c3.399,11.314,4.19,23.5,10.042,33.977c6.535,11.642,16.313,21.747,28.482,27.506
			c12.123,5.836,25.099,9.778,38.292,12.402c-6.86,24.087-1.785,49.837-8.785,73.912c-2.344,7.729-5.448,15.663-11.518,21.266
			c-4.609,4.811-10.647,8.381-14.108,14.201c-0.776,6.736,5.82,11.641,5.944,18.315c0.684,17.073-1.07,34.132-1.288,51.206
			c-0.496,6.846,5.696,13.226,12.604,12.619c3.771,0.325,7-1.816,10.027-3.741c3.864,0.73,7.869,2.049,11.797,0.917
			c3.259-2.111,3.042-6.365,3.756-9.732c2.421-0.839,5.649-0.528,7.325-2.764c1.537-4.129,1.258-9.452-1.924-12.743
			c-4.579-2.654-10.012-2.98-15.134-3.756c-1.242-9.624-2.266-19.402-1.599-29.104c0.062-5.619,5.185-8.94,9.173-11.952
			c11.89-8.211,24.524-15.335,37.655-21.357c6.954-3.492,14.824-6.813,18.812-13.938c7.016-11.905,13.317-24.245,19.231-36.739
			c9.98-20.382,25.937-38.231,46.363-48.506c-9.53,9.405-20.132,18.331-26.34,30.452c25.595-21.031,56.529-35.916,89.248-41.473
			c-21.357,7.031-41.209,17.85-60.44,29.352c-14.947,8.442-28.109,19.79-39.348,32.72c6.054,3.07,13.364,5.787,16.267,12.479
			c2.376,6.905-3.445,12.647-7.232,17.692c-3.865,5.31-9.717,10.369-9.391,17.523c0.187,4.178,4.61,6.412,8.335,6.63
			c15.041,0.961,29.987-2.484,45.028-2.019c8.04,0.404,13.333,8.661,21.514,8.537c4.502,0.156,8.397-2.328,11.857-4.904
			c7.062,1.457,14.467,2.745,21.483,0.293c0.821-3.009,1.521-6.067,2.063-9.157c3.663-1.505,9.078-2.389,9.686-7.169
			c-1.057-7.28-7.017-13.597-14.001-15.631c-10.074-2.577-17.929,8.009-28.033,5.743c-9.188-1.507-18.284-3.57-27.396-5.51
			c4.593-10.168,12.557-18.409,21.699-24.65c13.224-9.452,30.578-10.369,43.725-19.93c6.224-5.837,7.87-14.775,9.979-22.692
			c2.175-7.154-0.277-14.42-1.925-21.388c13.581-1.196,27.678-1.351,40.39-6.923c10.989-4.89,21.559-10.71,32.021-16.655
			c-21.729-11.175-46.891-10.725-70.686-11.175c28.174-3.973,57.617-5.013,84.874,4.425c10.196,3.431,17.973,11.564,23.653,20.41
			c14.808-2.857,28.687-9.375,40.762-18.362c17.043-12.091,32.891-25.843,47.604-40.665c9.732-9.748,16.143-22.166,24.913-32.689
			c3.818-4.532,11.981-8.04,16.591-2.778c8.165,7.591,20.225,5.029,29.941,2.529c6.101,1.91,12.526,4.408,19.014,2.997
			c4.302-2.997,5.867-8.211,7.761-12.838c2.717-1.288,6.333-1.753,7.917-4.641c0.714-3.678-0.932-7.17-1.972-10.602
			c1.814-1.645,3.754-3.197,5.34-5.105C789.545,354.736,783.489,351.29,779.3,349.086z M658.601,255.66
			c3.229,1.257,6.489,2.468,9.779,3.538c-2.002,2.965-3.834,6.039-5.214,9.329c-6.615-6.208-14.654-10.648-23.734-11.812
			C645.733,255.861,652.438,252.633,658.601,255.66z M524.216,288.923c24.71-1.46,49.45,11.036,63.761,31.105
			c-17.569-12.853-38.431-23.283-60.688-22.817c-14.296-0.264-28.327,3.027-41.956,7
			C496.725,295.923,509.982,289.761,524.216,288.923z M510.386,332.741c-14.497,6.891-26.993,17.693-42.437,22.661
			c-15.988,6.054-33.899,5.913-49.996,0.294c17.354-0.807,34.551-4.812,50.166-12.495c17.104-7.388,32.362-19.666,51.206-22.459
			c13.907-2.453,28.063-0.233,41.551,3.415C543.647,322.993,526.031,325.088,510.386,332.741z M601.916,389.813
			c2.871-7.544,3.368-16.469-1.507-23.329c-7.217-10.834-20.922-14.156-33.028-15.956c-15.756-2.422-31.634,0.14-47,3.662
			c20.907-9.562,45.214-13.131,67.457-6.177c8.195,2.717,17.012,6.441,21.561,14.249c2.469,3.865,2.81,8.521,3.183,12.96
			c6.58-1.691,13.036-3.864,19.153-6.844c0.993-5.479,2.127-11.161,5.54-15.708c2.763-4.037,7.84-6.706,12.774-5.853
			c8.878,1.087,17.12,4.89,25.128,8.692C653.339,371.668,627.791,382.022,601.916,389.813z"/>
	</g>
</g>
</svg>
